<mxfile host="app.diagrams.net" agent="Mozilla/5.0 (Windows NT 10.0; Win64; x64) AppleWebKit/537.36 (KHTML, like Gecko) Chrome/131.0.0.0 Safari/537.36 Edg/131.0.0.0" version="25.0.1" pages="2">
  <diagram id="MWgWoqFxqX3e2gePKZHm" name="admin">
    <mxGraphModel dx="498" dy="274" grid="1" gridSize="10" guides="1" tooltips="1" connect="1" arrows="1" fold="1" page="1" pageScale="1" pageWidth="1100" pageHeight="850" math="0" shadow="0">
      <root>
        <mxCell id="0" />
        <mxCell id="1" parent="0" />
        <mxCell id="orqh2xT4-QYArf5XbAf0-1" value="" style="edgeStyle=orthogonalEdgeStyle;rounded=0;orthogonalLoop=1;jettySize=auto;html=1;" parent="1" source="orqh2xT4-QYArf5XbAf0-2" target="orqh2xT4-QYArf5XbAf0-3" edge="1">
          <mxGeometry relative="1" as="geometry" />
        </mxCell>
        <mxCell id="orqh2xT4-QYArf5XbAf0-2" value="Start" style="strokeWidth=2;html=1;shape=mxgraph.flowchart.start_1;whiteSpace=wrap;" parent="1" vertex="1">
          <mxGeometry x="80" y="50" width="100" height="70" as="geometry" />
        </mxCell>
        <mxCell id="orqh2xT4-QYArf5XbAf0-5" value="" style="edgeStyle=orthogonalEdgeStyle;rounded=0;orthogonalLoop=1;jettySize=auto;html=1;" parent="1" source="orqh2xT4-QYArf5XbAf0-3" target="orqh2xT4-QYArf5XbAf0-4" edge="1">
          <mxGeometry relative="1" as="geometry" />
        </mxCell>
        <mxCell id="orqh2xT4-QYArf5XbAf0-3" value="Home Page" style="whiteSpace=wrap;html=1;strokeWidth=2;" parent="1" vertex="1">
          <mxGeometry x="250" y="55" width="120" height="60" as="geometry" />
        </mxCell>
        <mxCell id="orqh2xT4-QYArf5XbAf0-7" value="" style="edgeStyle=orthogonalEdgeStyle;rounded=0;orthogonalLoop=1;jettySize=auto;html=1;" parent="1" source="orqh2xT4-QYArf5XbAf0-4" target="orqh2xT4-QYArf5XbAf0-6" edge="1">
          <mxGeometry relative="1" as="geometry" />
        </mxCell>
        <mxCell id="orqh2xT4-QYArf5XbAf0-4" value="Login" style="whiteSpace=wrap;html=1;strokeWidth=2;" parent="1" vertex="1">
          <mxGeometry x="450" y="55" width="120" height="60" as="geometry" />
        </mxCell>
        <mxCell id="orqh2xT4-QYArf5XbAf0-9" value="" style="edgeStyle=orthogonalEdgeStyle;rounded=0;orthogonalLoop=1;jettySize=auto;html=1;" parent="1" source="orqh2xT4-QYArf5XbAf0-6" target="orqh2xT4-QYArf5XbAf0-8" edge="1">
          <mxGeometry relative="1" as="geometry" />
        </mxCell>
        <mxCell id="orqh2xT4-QYArf5XbAf0-6" value="Email&lt;br&gt;dan&lt;br&gt;Password" style="shape=parallelogram;html=1;strokeWidth=2;perimeter=parallelogramPerimeter;whiteSpace=wrap;rounded=1;arcSize=12;size=0.23;" parent="1" vertex="1">
          <mxGeometry x="460" y="180" width="100" height="60" as="geometry" />
        </mxCell>
        <mxCell id="9MBnTAIVRPwWRf14okfd-2" value="" style="edgeStyle=orthogonalEdgeStyle;rounded=0;orthogonalLoop=1;jettySize=auto;html=1;entryX=0;entryY=0.5;entryDx=0;entryDy=0;" edge="1" parent="1" source="orqh2xT4-QYArf5XbAf0-8" target="9MBnTAIVRPwWRf14okfd-1">
          <mxGeometry relative="1" as="geometry">
            <mxPoint x="100" y="450" as="targetPoint" />
          </mxGeometry>
        </mxCell>
        <mxCell id="9MBnTAIVRPwWRf14okfd-4" value="" style="edgeStyle=orthogonalEdgeStyle;rounded=0;orthogonalLoop=1;jettySize=auto;html=1;entryX=0;entryY=0.5;entryDx=0;entryDy=0;" edge="1" parent="1" source="orqh2xT4-QYArf5XbAf0-8" target="9MBnTAIVRPwWRf14okfd-3">
          <mxGeometry relative="1" as="geometry" />
        </mxCell>
        <mxCell id="9MBnTAIVRPwWRf14okfd-6" value="" style="edgeStyle=orthogonalEdgeStyle;rounded=0;orthogonalLoop=1;jettySize=auto;html=1;entryX=1;entryY=0.5;entryDx=0;entryDy=0;" edge="1" parent="1" source="orqh2xT4-QYArf5XbAf0-8" target="9MBnTAIVRPwWRf14okfd-5">
          <mxGeometry relative="1" as="geometry">
            <mxPoint x="1040" y="460" as="targetPoint" />
            <Array as="points">
              <mxPoint x="1040" y="340" />
              <mxPoint x="1040" y="450" />
            </Array>
          </mxGeometry>
        </mxCell>
        <mxCell id="9MBnTAIVRPwWRf14okfd-8" value="" style="edgeStyle=orthogonalEdgeStyle;rounded=0;orthogonalLoop=1;jettySize=auto;html=1;entryX=1;entryY=0.5;entryDx=0;entryDy=0;" edge="1" parent="1" source="orqh2xT4-QYArf5XbAf0-8" target="9MBnTAIVRPwWRf14okfd-7">
          <mxGeometry relative="1" as="geometry" />
        </mxCell>
        <mxCell id="9MBnTAIVRPwWRf14okfd-10" value="" style="edgeStyle=orthogonalEdgeStyle;rounded=0;orthogonalLoop=1;jettySize=auto;html=1;entryX=1;entryY=0.5;entryDx=0;entryDy=0;" edge="1" parent="1" source="orqh2xT4-QYArf5XbAf0-8" target="9MBnTAIVRPwWRf14okfd-9">
          <mxGeometry relative="1" as="geometry" />
        </mxCell>
        <mxCell id="9MBnTAIVRPwWRf14okfd-12" value="" style="edgeStyle=orthogonalEdgeStyle;rounded=0;orthogonalLoop=1;jettySize=auto;html=1;entryX=1;entryY=0.5;entryDx=0;entryDy=0;" edge="1" parent="1" source="orqh2xT4-QYArf5XbAf0-8" target="9MBnTAIVRPwWRf14okfd-11">
          <mxGeometry relative="1" as="geometry" />
        </mxCell>
        <mxCell id="9MBnTAIVRPwWRf14okfd-14" value="" style="edgeStyle=orthogonalEdgeStyle;rounded=0;orthogonalLoop=1;jettySize=auto;html=1;entryX=0;entryY=0.5;entryDx=0;entryDy=0;" edge="1" parent="1" source="orqh2xT4-QYArf5XbAf0-8" target="9MBnTAIVRPwWRf14okfd-13">
          <mxGeometry relative="1" as="geometry" />
        </mxCell>
        <mxCell id="9MBnTAIVRPwWRf14okfd-16" value="" style="edgeStyle=orthogonalEdgeStyle;rounded=0;orthogonalLoop=1;jettySize=auto;html=1;entryX=0;entryY=0.5;entryDx=0;entryDy=0;" edge="1" parent="1" source="orqh2xT4-QYArf5XbAf0-8" target="9MBnTAIVRPwWRf14okfd-15">
          <mxGeometry relative="1" as="geometry">
            <mxPoint x="50" y="760" as="targetPoint" />
          </mxGeometry>
        </mxCell>
        <mxCell id="orqh2xT4-QYArf5XbAf0-8" value="Dashboard" style="whiteSpace=wrap;html=1;strokeWidth=2;rounded=1;arcSize=12;" parent="1" vertex="1">
          <mxGeometry x="450" y="310" width="120" height="60" as="geometry" />
        </mxCell>
        <mxCell id="9MBnTAIVRPwWRf14okfd-21" value="" style="edgeStyle=orthogonalEdgeStyle;rounded=0;orthogonalLoop=1;jettySize=auto;html=1;" edge="1" parent="1" source="9MBnTAIVRPwWRf14okfd-1" target="9MBnTAIVRPwWRf14okfd-20">
          <mxGeometry relative="1" as="geometry" />
        </mxCell>
        <mxCell id="9MBnTAIVRPwWRf14okfd-1" value="Fakultas" style="whiteSpace=wrap;html=1;strokeWidth=2;rounded=1;arcSize=12;" vertex="1" parent="1">
          <mxGeometry x="60" y="420" width="120" height="60" as="geometry" />
        </mxCell>
        <mxCell id="9MBnTAIVRPwWRf14okfd-60" value="" style="edgeStyle=orthogonalEdgeStyle;rounded=0;orthogonalLoop=1;jettySize=auto;html=1;" edge="1" parent="1" source="9MBnTAIVRPwWRf14okfd-3" target="9MBnTAIVRPwWRf14okfd-52">
          <mxGeometry relative="1" as="geometry" />
        </mxCell>
        <mxCell id="9MBnTAIVRPwWRf14okfd-3" value="Jurusan" style="whiteSpace=wrap;html=1;strokeWidth=2;rounded=1;arcSize=12;" vertex="1" parent="1">
          <mxGeometry x="60" y="530" width="120" height="60" as="geometry" />
        </mxCell>
        <mxCell id="9MBnTAIVRPwWRf14okfd-5" value="Dosen" style="whiteSpace=wrap;html=1;strokeWidth=2;rounded=1;arcSize=12;" vertex="1" parent="1">
          <mxGeometry x="900" y="420" width="120" height="60" as="geometry" />
        </mxCell>
        <mxCell id="9MBnTAIVRPwWRf14okfd-7" value="Mata Kuliah" style="whiteSpace=wrap;html=1;strokeWidth=2;rounded=1;arcSize=12;" vertex="1" parent="1">
          <mxGeometry x="900" y="520" width="120" height="60" as="geometry" />
        </mxCell>
        <mxCell id="9MBnTAIVRPwWRf14okfd-9" value="Semester" style="whiteSpace=wrap;html=1;strokeWidth=2;rounded=1;arcSize=12;" vertex="1" parent="1">
          <mxGeometry x="900" y="630" width="120" height="60" as="geometry" />
        </mxCell>
        <mxCell id="9MBnTAIVRPwWRf14okfd-11" value="Mahasiswa" style="whiteSpace=wrap;html=1;strokeWidth=2;rounded=1;arcSize=12;" vertex="1" parent="1">
          <mxGeometry x="900" y="730" width="120" height="60" as="geometry" />
        </mxCell>
        <mxCell id="9MBnTAIVRPwWRf14okfd-13" value="Riwayat Pembayaran" style="whiteSpace=wrap;html=1;strokeWidth=2;rounded=1;arcSize=12;" vertex="1" parent="1">
          <mxGeometry x="60" y="630" width="120" height="60" as="geometry" />
        </mxCell>
        <mxCell id="9MBnTAIVRPwWRf14okfd-15" value="Kontrak KRS" style="whiteSpace=wrap;html=1;strokeWidth=2;rounded=1;arcSize=12;" vertex="1" parent="1">
          <mxGeometry x="60" y="743" width="120" height="60" as="geometry" />
        </mxCell>
        <mxCell id="9MBnTAIVRPwWRf14okfd-23" value="" style="edgeStyle=orthogonalEdgeStyle;rounded=0;orthogonalLoop=1;jettySize=auto;html=1;" edge="1" parent="1" source="9MBnTAIVRPwWRf14okfd-20" target="9MBnTAIVRPwWRf14okfd-22">
          <mxGeometry relative="1" as="geometry" />
        </mxCell>
        <mxCell id="9MBnTAIVRPwWRf14okfd-48" value="Update" style="edgeLabel;html=1;align=center;verticalAlign=middle;resizable=0;points=[];" vertex="1" connectable="0" parent="9MBnTAIVRPwWRf14okfd-23">
          <mxGeometry x="-0.0857" relative="1" as="geometry">
            <mxPoint as="offset" />
          </mxGeometry>
        </mxCell>
        <mxCell id="9MBnTAIVRPwWRf14okfd-20" value="Aksi" style="rhombus;whiteSpace=wrap;html=1;strokeWidth=2;rounded=1;arcSize=12;" vertex="1" parent="1">
          <mxGeometry x="200" y="410" width="80" height="80" as="geometry" />
        </mxCell>
        <mxCell id="9MBnTAIVRPwWRf14okfd-25" value="" style="edgeStyle=orthogonalEdgeStyle;rounded=0;orthogonalLoop=1;jettySize=auto;html=1;entryX=0.5;entryY=0;entryDx=0;entryDy=0;exitX=0.583;exitY=0;exitDx=0;exitDy=0;exitPerimeter=0;" edge="1" parent="1" source="9MBnTAIVRPwWRf14okfd-22" target="9MBnTAIVRPwWRf14okfd-1">
          <mxGeometry relative="1" as="geometry">
            <mxPoint x="530" y="460" as="targetPoint" />
            <Array as="points">
              <mxPoint x="390" y="390" />
              <mxPoint x="120" y="390" />
            </Array>
          </mxGeometry>
        </mxCell>
        <mxCell id="9MBnTAIVRPwWRf14okfd-22" value="Proses" style="shape=parallelogram;perimeter=parallelogramPerimeter;whiteSpace=wrap;html=1;fixedSize=1;strokeWidth=2;rounded=1;arcSize=12;" vertex="1" parent="1">
          <mxGeometry x="330" y="420" width="110" height="60" as="geometry" />
        </mxCell>
        <mxCell id="9MBnTAIVRPwWRf14okfd-41" value="" style="endArrow=classic;html=1;rounded=0;entryX=0;entryY=1;entryDx=0;entryDy=0;" edge="1" parent="1" source="9MBnTAIVRPwWRf14okfd-20" target="9MBnTAIVRPwWRf14okfd-22">
          <mxGeometry width="50" height="50" relative="1" as="geometry">
            <mxPoint x="270" y="570" as="sourcePoint" />
            <mxPoint x="320" y="520" as="targetPoint" />
          </mxGeometry>
        </mxCell>
        <mxCell id="9MBnTAIVRPwWRf14okfd-49" value="Delete" style="edgeLabel;html=1;align=center;verticalAlign=middle;resizable=0;points=[];" vertex="1" connectable="0" parent="9MBnTAIVRPwWRf14okfd-41">
          <mxGeometry x="-0.1629" relative="1" as="geometry">
            <mxPoint as="offset" />
          </mxGeometry>
        </mxCell>
        <mxCell id="9MBnTAIVRPwWRf14okfd-42" value="" style="endArrow=classic;html=1;rounded=0;exitX=1;exitY=0;exitDx=0;exitDy=0;entryX=0.152;entryY=0.071;entryDx=0;entryDy=0;entryPerimeter=0;" edge="1" parent="1" source="9MBnTAIVRPwWRf14okfd-20" target="9MBnTAIVRPwWRf14okfd-22">
          <mxGeometry width="50" height="50" relative="1" as="geometry">
            <mxPoint x="296.1599999999999" y="494" as="sourcePoint" />
            <mxPoint x="323.84" y="580" as="targetPoint" />
          </mxGeometry>
        </mxCell>
        <mxCell id="9MBnTAIVRPwWRf14okfd-47" value="Create" style="edgeLabel;html=1;align=center;verticalAlign=middle;resizable=0;points=[];" vertex="1" connectable="0" parent="9MBnTAIVRPwWRf14okfd-42">
          <mxGeometry x="0.0681" y="1" relative="1" as="geometry">
            <mxPoint as="offset" />
          </mxGeometry>
        </mxCell>
        <mxCell id="9MBnTAIVRPwWRf14okfd-50" value="" style="edgeStyle=orthogonalEdgeStyle;rounded=0;orthogonalLoop=1;jettySize=auto;html=1;" edge="1" parent="1" source="9MBnTAIVRPwWRf14okfd-52" target="9MBnTAIVRPwWRf14okfd-54">
          <mxGeometry relative="1" as="geometry" />
        </mxCell>
        <mxCell id="9MBnTAIVRPwWRf14okfd-51" value="Update" style="edgeLabel;html=1;align=center;verticalAlign=middle;resizable=0;points=[];" vertex="1" connectable="0" parent="9MBnTAIVRPwWRf14okfd-50">
          <mxGeometry x="-0.0857" relative="1" as="geometry">
            <mxPoint as="offset" />
          </mxGeometry>
        </mxCell>
        <mxCell id="9MBnTAIVRPwWRf14okfd-52" value="Aksi" style="rhombus;whiteSpace=wrap;html=1;strokeWidth=2;rounded=1;arcSize=12;" vertex="1" parent="1">
          <mxGeometry x="200" y="520" width="80" height="80" as="geometry" />
        </mxCell>
        <mxCell id="9MBnTAIVRPwWRf14okfd-53" value="" style="edgeStyle=orthogonalEdgeStyle;rounded=0;orthogonalLoop=1;jettySize=auto;html=1;exitX=0.583;exitY=0;exitDx=0;exitDy=0;exitPerimeter=0;" edge="1" parent="1" source="9MBnTAIVRPwWRf14okfd-54" target="9MBnTAIVRPwWRf14okfd-3">
          <mxGeometry relative="1" as="geometry">
            <mxPoint x="120" y="530" as="targetPoint" />
            <Array as="points">
              <mxPoint x="390" y="530" />
              <mxPoint x="390" y="510" />
              <mxPoint x="120" y="510" />
            </Array>
          </mxGeometry>
        </mxCell>
        <mxCell id="9MBnTAIVRPwWRf14okfd-54" value="Proses" style="shape=parallelogram;perimeter=parallelogramPerimeter;whiteSpace=wrap;html=1;fixedSize=1;strokeWidth=2;rounded=1;arcSize=12;" vertex="1" parent="1">
          <mxGeometry x="330" y="530" width="110" height="60" as="geometry" />
        </mxCell>
        <mxCell id="9MBnTAIVRPwWRf14okfd-55" value="" style="endArrow=classic;html=1;rounded=0;entryX=0;entryY=1;entryDx=0;entryDy=0;" edge="1" parent="1" source="9MBnTAIVRPwWRf14okfd-52" target="9MBnTAIVRPwWRf14okfd-54">
          <mxGeometry width="50" height="50" relative="1" as="geometry">
            <mxPoint x="270" y="680" as="sourcePoint" />
            <mxPoint x="320" y="630" as="targetPoint" />
          </mxGeometry>
        </mxCell>
        <mxCell id="9MBnTAIVRPwWRf14okfd-56" value="Delete" style="edgeLabel;html=1;align=center;verticalAlign=middle;resizable=0;points=[];" vertex="1" connectable="0" parent="9MBnTAIVRPwWRf14okfd-55">
          <mxGeometry x="-0.1629" relative="1" as="geometry">
            <mxPoint as="offset" />
          </mxGeometry>
        </mxCell>
        <mxCell id="9MBnTAIVRPwWRf14okfd-57" value="" style="endArrow=classic;html=1;rounded=0;exitX=1;exitY=0;exitDx=0;exitDy=0;entryX=0.152;entryY=0.071;entryDx=0;entryDy=0;entryPerimeter=0;" edge="1" parent="1" source="9MBnTAIVRPwWRf14okfd-52" target="9MBnTAIVRPwWRf14okfd-54">
          <mxGeometry width="50" height="50" relative="1" as="geometry">
            <mxPoint x="296.1599999999999" y="604" as="sourcePoint" />
            <mxPoint x="323.84" y="690" as="targetPoint" />
          </mxGeometry>
        </mxCell>
        <mxCell id="9MBnTAIVRPwWRf14okfd-58" value="Create" style="edgeLabel;html=1;align=center;verticalAlign=middle;resizable=0;points=[];" vertex="1" connectable="0" parent="9MBnTAIVRPwWRf14okfd-57">
          <mxGeometry x="0.0681" y="1" relative="1" as="geometry">
            <mxPoint as="offset" />
          </mxGeometry>
        </mxCell>
      </root>
    </mxGraphModel>
  </diagram>
  <diagram name="mahasiswa" id="uH4a9k6xQ-mA9DKvWFjc">
    <mxGraphModel dx="758" dy="415" grid="1" gridSize="10" guides="1" tooltips="1" connect="1" arrows="1" fold="1" page="1" pageScale="1" pageWidth="1100" pageHeight="850" math="0" shadow="0">
      <root>
        <mxCell id="0" />
        <mxCell id="1" parent="0" />
        <mxCell id="oYKJX-iXNLwWp_gNZQ3B-3" value="" style="edgeStyle=orthogonalEdgeStyle;rounded=0;orthogonalLoop=1;jettySize=auto;html=1;" edge="1" parent="1" source="oYKJX-iXNLwWp_gNZQ3B-1" target="oYKJX-iXNLwWp_gNZQ3B-2">
          <mxGeometry relative="1" as="geometry" />
        </mxCell>
        <mxCell id="oYKJX-iXNLwWp_gNZQ3B-1" value="Start" style="strokeWidth=2;html=1;shape=mxgraph.flowchart.start_1;whiteSpace=wrap;" vertex="1" parent="1">
          <mxGeometry x="60" y="50" width="100" height="70" as="geometry" />
        </mxCell>
        <mxCell id="oYKJX-iXNLwWp_gNZQ3B-5" value="" style="edgeStyle=orthogonalEdgeStyle;rounded=0;orthogonalLoop=1;jettySize=auto;html=1;" edge="1" parent="1" source="oYKJX-iXNLwWp_gNZQ3B-2" target="oYKJX-iXNLwWp_gNZQ3B-4">
          <mxGeometry relative="1" as="geometry" />
        </mxCell>
        <mxCell id="oYKJX-iXNLwWp_gNZQ3B-2" value="Home Page" style="whiteSpace=wrap;html=1;strokeWidth=2;" vertex="1" parent="1">
          <mxGeometry x="230" y="55" width="120" height="60" as="geometry" />
        </mxCell>
        <mxCell id="oYKJX-iXNLwWp_gNZQ3B-37" value="Ya" style="edgeStyle=orthogonalEdgeStyle;rounded=0;orthogonalLoop=1;jettySize=auto;html=1;" edge="1" parent="1" source="oYKJX-iXNLwWp_gNZQ3B-4" target="oYKJX-iXNLwWp_gNZQ3B-36">
          <mxGeometry relative="1" as="geometry" />
        </mxCell>
        <mxCell id="oYKJX-iXNLwWp_gNZQ3B-39" value="Tidak" style="edgeStyle=orthogonalEdgeStyle;rounded=0;orthogonalLoop=1;jettySize=auto;html=1;" edge="1" parent="1" source="oYKJX-iXNLwWp_gNZQ3B-4" target="oYKJX-iXNLwWp_gNZQ3B-38">
          <mxGeometry relative="1" as="geometry" />
        </mxCell>
        <mxCell id="oYKJX-iXNLwWp_gNZQ3B-4" value="Akun?" style="rhombus;whiteSpace=wrap;html=1;strokeWidth=2;" vertex="1" parent="1">
          <mxGeometry x="250" y="185" width="80" height="80" as="geometry" />
        </mxCell>
        <mxCell id="oYKJX-iXNLwWp_gNZQ3B-41" value="" style="edgeStyle=orthogonalEdgeStyle;rounded=0;orthogonalLoop=1;jettySize=auto;html=1;" edge="1" parent="1" source="oYKJX-iXNLwWp_gNZQ3B-36" target="oYKJX-iXNLwWp_gNZQ3B-40">
          <mxGeometry relative="1" as="geometry" />
        </mxCell>
        <mxCell id="oYKJX-iXNLwWp_gNZQ3B-36" value="Login" style="whiteSpace=wrap;html=1;strokeWidth=2;" vertex="1" parent="1">
          <mxGeometry x="70" y="195" width="120" height="60" as="geometry" />
        </mxCell>
        <mxCell id="oYKJX-iXNLwWp_gNZQ3B-44" value="" style="edgeStyle=orthogonalEdgeStyle;rounded=0;orthogonalLoop=1;jettySize=auto;html=1;" edge="1" parent="1" source="oYKJX-iXNLwWp_gNZQ3B-38" target="oYKJX-iXNLwWp_gNZQ3B-43">
          <mxGeometry relative="1" as="geometry" />
        </mxCell>
        <mxCell id="oYKJX-iXNLwWp_gNZQ3B-38" value="Register" style="whiteSpace=wrap;html=1;strokeWidth=2;" vertex="1" parent="1">
          <mxGeometry x="390" y="195" width="120" height="60" as="geometry" />
        </mxCell>
        <mxCell id="oYKJX-iXNLwWp_gNZQ3B-40" value="email/NIM &lt;br&gt;dan &lt;br&gt;password" style="shape=parallelogram;html=1;strokeWidth=2;perimeter=parallelogramPerimeter;whiteSpace=wrap;rounded=1;arcSize=12;size=0.23;" vertex="1" parent="1">
          <mxGeometry x="60" y="300" width="140" height="60" as="geometry" />
        </mxCell>
        <mxCell id="oYKJX-iXNLwWp_gNZQ3B-43" value="email/NIM &lt;br&gt;dan &lt;br&gt;password" style="shape=parallelogram;html=1;strokeWidth=2;perimeter=parallelogramPerimeter;whiteSpace=wrap;rounded=1;arcSize=12;size=0.23;" vertex="1" parent="1">
          <mxGeometry x="380" y="300" width="140" height="60" as="geometry" />
        </mxCell>
      </root>
    </mxGraphModel>
  </diagram>
</mxfile>
